<svg width="89" height="37" viewBox="0 0 89 37" fill="white" xmlns="http://www.w3.org/2000/svg">
<path d="M10.3051 30.6098C10.2294 30.6098 10.1491 30.6035 10.064 30.5909C9.97889 30.5752 9.89852 30.5452 9.82289 30.5011C9.74725 30.457 9.6858 30.3908 9.63852 30.3025C9.59125 30.2112 9.56761 30.0882 9.56761 29.9338V27.8113C9.56761 27.6758 9.58652 27.5639 9.62434 27.4756C9.66531 27.3842 9.71889 27.3133 9.78507 27.2629C9.85125 27.2093 9.92531 27.1715 10.0072 27.1495C10.0892 27.1242 10.1711 27.1116 10.2531 27.1116C10.4485 27.1148 10.6297 27.1195 10.7967 27.1258C10.9637 27.129 11.1213 27.1337 11.2694 27.14C11.4207 27.1432 11.5672 27.1479 11.7091 27.1542V27.4567H10.3476C10.2247 27.4567 10.127 27.4898 10.0545 27.556C9.98204 27.6222 9.9458 27.7278 9.9458 27.8727V28.6953L11.5011 28.7189V29.0073L9.9458 29.0309V29.8487C9.9458 29.9653 9.9647 30.0536 10.0025 30.1135C10.0435 30.1733 10.0971 30.2127 10.1632 30.2316C10.2294 30.2505 10.2972 30.26 10.3665 30.26H11.7091V30.5625C11.5641 30.572 11.4112 30.5799 11.2505 30.5862C11.0929 30.5925 10.9338 30.5972 10.7731 30.6004C10.6155 30.6035 10.4595 30.6067 10.3051 30.6098ZM12.3374 30.5909V28.0665H12.6305L12.7108 28.3455C12.8369 28.2572 12.9771 28.1816 13.1316 28.1185C13.2891 28.0555 13.4641 28.024 13.6563 28.024C13.8139 28.024 13.9478 28.0602 14.0581 28.1327C14.1716 28.2021 14.2567 28.2903 14.3134 28.3975C14.3922 28.3407 14.4867 28.284 14.597 28.2273C14.7105 28.1705 14.8302 28.1233 14.9563 28.0855C15.0855 28.0445 15.21 28.024 15.3298 28.024C15.5125 28.024 15.6622 28.0634 15.7788 28.1422C15.8954 28.2178 15.9805 28.3218 16.0341 28.4542C16.0908 28.5834 16.1192 28.7284 16.1192 28.8891V30.5909H15.7458V28.9175C15.7458 28.8103 15.7237 28.7158 15.6796 28.6338C15.6386 28.5487 15.5787 28.4825 15.4999 28.4353C15.4211 28.388 15.325 28.3644 15.2116 28.3644C15.0698 28.3644 14.9248 28.3912 14.7767 28.4447C14.6285 28.4983 14.4914 28.5629 14.3654 28.6385C14.3811 28.6858 14.3922 28.7331 14.3985 28.7804C14.4079 28.8245 14.4127 28.8718 14.4127 28.9222V30.5909H14.0392V28.9175C14.0392 28.8103 14.0171 28.7158 13.973 28.6338C13.9321 28.5487 13.8722 28.4825 13.7934 28.4353C13.7178 28.388 13.6232 28.3644 13.5098 28.3644C13.4058 28.3644 13.3081 28.3754 13.2167 28.3975C13.1284 28.4164 13.0433 28.4447 12.9614 28.4825C12.8826 28.5172 12.7991 28.5598 12.7108 28.6102V30.5909H12.3374ZM16.82 31.7113V28.0665H17.1225L17.1934 28.3265C17.2502 28.2856 17.3227 28.243 17.4109 28.1989C17.5023 28.1516 17.6 28.1122 17.704 28.0807C17.8111 28.0492 17.9167 28.0335 18.0207 28.0335C18.1846 28.0335 18.3233 28.0697 18.4367 28.1422C18.5533 28.2115 18.6479 28.3061 18.7204 28.4258C18.7928 28.5456 18.8448 28.6827 18.8764 28.8371C18.9079 28.9915 18.9236 29.1538 18.9236 29.324C18.9236 29.6076 18.8905 29.8472 18.8244 30.0425C18.7613 30.2348 18.6636 30.3798 18.5313 30.4775C18.3989 30.5752 18.2287 30.624 18.0207 30.624C17.8789 30.624 17.7355 30.6019 17.5905 30.5578C17.4487 30.5105 17.3164 30.4522 17.1934 30.3829V31.7113H16.82ZM17.9167 30.3073C18.0365 30.3073 18.1436 30.2773 18.2382 30.2175C18.3327 30.1576 18.4084 30.0567 18.4651 29.9149C18.5218 29.7699 18.5502 29.573 18.5502 29.324C18.5502 29.0876 18.5202 28.8985 18.4604 28.7567C18.4005 28.6118 18.3233 28.5078 18.2287 28.4447C18.1342 28.3785 18.0302 28.3455 17.9167 28.3455C17.7717 28.3455 17.6378 28.3691 17.5149 28.4164C17.3951 28.4605 17.288 28.5078 17.1934 28.5582V30.104C17.3037 30.1639 17.4204 30.2127 17.5433 30.2505C17.6693 30.2884 17.7938 30.3073 17.9167 30.3073ZM20.5551 30.6193C20.3723 30.6193 20.2116 30.6004 20.0729 30.5625C19.9374 30.5247 19.824 30.4585 19.7326 30.364C19.6412 30.2695 19.5734 30.1387 19.5293 29.9716C19.4852 29.8015 19.4631 29.5856 19.4631 29.324C19.4631 29.0593 19.4852 28.8434 19.5293 28.6764C19.5734 28.5062 19.6412 28.3754 19.7326 28.284C19.824 28.1895 19.9374 28.1249 20.0729 28.0902C20.2116 28.0524 20.3723 28.0335 20.5551 28.0335C20.7379 28.0335 20.8971 28.0524 21.0326 28.0902C21.1712 28.128 21.2863 28.1942 21.3777 28.2887C21.4691 28.3801 21.5368 28.5109 21.5809 28.6811C21.6282 28.8481 21.6519 29.0624 21.6519 29.324C21.6519 29.5887 21.6282 29.8062 21.5809 29.9764C21.5368 30.1434 21.4691 30.2742 21.3777 30.3687C21.2894 30.4601 21.176 30.5247 21.0373 30.5625C20.8986 30.6004 20.7379 30.6193 20.5551 30.6193ZM20.5551 30.312C20.6717 30.312 20.7742 30.301 20.8624 30.2789C20.9538 30.2569 21.0294 30.2127 21.0893 30.1465C21.1492 30.0804 21.1949 29.9811 21.2264 29.8487C21.2579 29.7164 21.2737 29.5415 21.2737 29.324C21.2737 29.1034 21.2579 28.9285 21.2264 28.7993C21.1949 28.6701 21.1492 28.5724 21.0893 28.5062C21.0294 28.44 20.9538 28.3959 20.8624 28.3738C20.7742 28.3518 20.6717 28.3407 20.5551 28.3407C20.4354 28.3407 20.3314 28.3518 20.2431 28.3738C20.1549 28.3959 20.0808 28.44 20.0209 28.5062C19.9611 28.5724 19.9154 28.6701 19.8839 28.7993C19.8523 28.9285 19.8366 29.1034 19.8366 29.324C19.8366 29.5415 19.8523 29.7164 19.8839 29.8487C19.9154 29.9811 19.9611 30.0804 20.0209 30.1465C20.0808 30.2127 20.1549 30.2569 20.2431 30.2789C20.3314 30.301 20.4354 30.312 20.5551 30.312ZM22.6853 30.5909L21.9195 28.0665H22.3024L22.9217 30.2411L23.5599 28.0665H23.886L24.5242 30.2411L25.1246 28.0665H25.5075L24.7464 30.5909H24.3351L23.7159 28.5676L23.0919 30.5909H22.6853ZM26.828 30.6193C26.5633 30.6193 26.3537 30.5799 26.1993 30.5011C26.048 30.4223 25.9393 30.2884 25.8731 30.0993C25.8069 29.9102 25.7738 29.6518 25.7738 29.324C25.7738 28.9899 25.8069 28.7299 25.8731 28.544C25.9425 28.3549 26.0543 28.2225 26.2088 28.1469C26.3632 28.0713 26.5712 28.0335 26.8328 28.0335C27.0565 28.0335 27.2377 28.0587 27.3764 28.1091C27.5182 28.1595 27.6222 28.2462 27.6884 28.3691C27.7577 28.4889 27.7924 28.6559 27.7924 28.8702C27.7924 29.0183 27.7625 29.1381 27.7026 29.2295C27.6458 29.3177 27.5623 29.3823 27.452 29.4233C27.3449 29.4611 27.2172 29.48 27.0691 29.48H26.1473C26.1505 29.6849 26.1725 29.8503 26.2135 29.9764C26.2545 30.0993 26.3285 30.1891 26.4357 30.2458C26.546 30.2994 26.7067 30.3262 26.9178 30.3262H27.7309V30.5531C27.586 30.572 27.4442 30.5878 27.3055 30.6004C27.1668 30.613 27.0077 30.6193 26.828 30.6193ZM26.1426 29.2342H27.0408C27.1826 29.2342 27.2866 29.209 27.3528 29.1585C27.4221 29.105 27.4568 29.0104 27.4568 28.8749C27.4568 28.7299 27.4347 28.6181 27.3906 28.5393C27.3496 28.4573 27.2834 28.4006 27.192 28.3691C27.1038 28.3344 26.984 28.3171 26.8328 28.3171C26.6563 28.3171 26.5176 28.3439 26.4168 28.3975C26.3159 28.4479 26.245 28.5393 26.204 28.6716C26.1631 28.804 26.1426 28.9915 26.1426 29.2342ZM28.4212 30.5909V28.0665H28.7048L28.7946 28.5062C28.9081 28.3707 29.0342 28.2588 29.1728 28.1705C29.3146 28.0823 29.477 28.0382 29.6597 28.0382C29.7039 28.0382 29.7448 28.0398 29.7826 28.0429C29.8236 28.0461 29.8614 28.0524 29.8961 28.0618V28.4447C29.8551 28.4384 29.811 28.4337 29.7637 28.4305C29.7165 28.4242 29.6692 28.4211 29.6219 28.4211C29.5053 28.4211 29.4013 28.4353 29.3099 28.4636C29.2185 28.492 29.1319 28.5345 29.0499 28.5913C28.968 28.648 28.8829 28.7173 28.7946 28.7993V30.5909H28.4212ZM32.3195 31.7113L32.641 30.5909C32.5622 30.5878 32.4802 30.5689 32.3951 30.5342C32.31 30.4995 32.2313 30.4396 32.1588 30.3545C32.0863 30.2695 32.0264 30.1513 31.9791 30L31.374 28.0665H31.7664L32.329 29.9196C32.3636 30.0173 32.3999 30.0898 32.4377 30.1371C32.4786 30.1844 32.5196 30.2175 32.5606 30.2364C32.6016 30.2553 32.6362 30.2663 32.6646 30.2695C32.6961 30.2695 32.715 30.2695 32.7213 30.2695L33.369 28.0665H33.7519L32.83 31.2433L32.6126 31.7113H32.3195ZM35.2032 30.6193C35.0204 30.6193 34.8597 30.6004 34.721 30.5625C34.5855 30.5247 34.4721 30.4585 34.3807 30.364C34.2893 30.2695 34.2215 30.1387 34.1774 29.9716C34.1333 29.8015 34.1112 29.5856 34.1112 29.324C34.1112 29.0593 34.1333 28.8434 34.1774 28.6764C34.2215 28.5062 34.2893 28.3754 34.3807 28.284C34.4721 28.1895 34.5855 28.1249 34.721 28.0902C34.8597 28.0524 35.0204 28.0335 35.2032 28.0335C35.386 28.0335 35.5451 28.0524 35.6807 28.0902C35.8193 28.128 35.9344 28.1942 36.0258 28.2887C36.1171 28.3801 36.1849 28.5109 36.229 28.6811C36.2763 28.8481 36.2999 29.0624 36.2999 29.324C36.2999 29.5887 36.2763 29.8062 36.229 29.9764C36.1849 30.1434 36.1171 30.2742 36.0258 30.3687C35.9375 30.4601 35.8241 30.5247 35.6854 30.5625C35.5467 30.6004 35.386 30.6193 35.2032 30.6193ZM35.2032 30.312C35.3198 30.312 35.4222 30.301 35.5105 30.2789C35.6019 30.2569 35.6775 30.2127 35.7374 30.1465C35.7973 30.0804 35.843 29.9811 35.8745 29.8487C35.906 29.7164 35.9218 29.5415 35.9218 29.324C35.9218 29.1034 35.906 28.9285 35.8745 28.7993C35.843 28.6701 35.7973 28.5724 35.7374 28.5062C35.6775 28.44 35.6019 28.3959 35.5105 28.3738C35.4222 28.3518 35.3198 28.3407 35.2032 28.3407C35.0834 28.3407 34.9794 28.3518 34.8912 28.3738C34.803 28.3959 34.7289 28.44 34.669 28.5062C34.6091 28.5724 34.5634 28.6701 34.5319 28.7993C34.5004 28.9285 34.4847 29.1034 34.4847 29.324C34.4847 29.5415 34.5004 29.7164 34.5319 29.8487C34.5634 29.9811 34.6091 30.0804 34.669 30.1465C34.7289 30.2127 34.803 30.2569 34.8912 30.2789C34.9794 30.301 35.0834 30.312 35.2032 30.312ZM37.681 30.6193C37.4383 30.6193 37.2508 30.5562 37.1185 30.4302C36.9892 30.3041 36.9246 30.1087 36.9246 29.844V28.0665H37.2981V29.7495C37.2981 29.9606 37.3454 30.104 37.4399 30.1796C37.5376 30.2521 37.6731 30.2884 37.8465 30.2884C37.9946 30.2884 38.1301 30.2679 38.253 30.2269C38.3759 30.1828 38.502 30.1229 38.6312 30.0473V28.0665H39.0046V30.5909H38.7115L38.6312 30.312C38.502 30.3939 38.3554 30.4664 38.1915 30.5295C38.0308 30.5893 37.8606 30.6193 37.681 30.6193ZM39.7085 30.5909V28.0665H39.9921L40.0819 28.5062C40.1954 28.3707 40.3215 28.2588 40.4601 28.1705C40.6019 28.0823 40.7642 28.0382 40.947 28.0382C40.9911 28.0382 41.0321 28.0398 41.0699 28.0429C41.1109 28.0461 41.1487 28.0524 41.1834 28.0618V28.4447C41.1424 28.4384 41.0983 28.4337 41.051 28.4305C41.0038 28.4242 40.9565 28.4211 40.9092 28.4211C40.7926 28.4211 40.6886 28.4353 40.5972 28.4636C40.5058 28.492 40.4191 28.5345 40.3372 28.5913C40.2553 28.648 40.1702 28.7173 40.0819 28.7993V30.5909H39.7085ZM43.0017 30.5909V27.1116H43.309L45.1242 29.9433V27.1116H45.4977V30.5909H45.1904L43.3751 27.7593V30.5909H43.0017ZM46.1624 30.5909V27.8113C46.1624 27.6758 46.1813 27.5639 46.2192 27.4756C46.2601 27.3842 46.3137 27.3133 46.3799 27.2629C46.4461 27.2093 46.5201 27.1715 46.6021 27.1495C46.684 27.1242 46.7659 27.1116 46.8479 27.1116C46.9865 27.1148 47.1362 27.1179 47.297 27.1211C47.4609 27.1242 47.6279 27.129 47.7981 27.1353C47.9714 27.1384 48.14 27.1463 48.3039 27.1589V27.4567H46.9377C46.8116 27.4567 46.7139 27.4914 46.6446 27.5607C46.5753 27.6301 46.5406 27.7325 46.5406 27.868V28.7709L48.0959 28.7945V29.0829L46.5406 29.1065V30.5909H46.1624ZM49.6293 30.5909V27.452H48.5562V27.1116H51.0806V27.452H50.0075V30.5909H49.6293Z" fill="white"/>
<path d="M9.62718 6.36364V1.46618H10.6067V3.49135H11.2552L12.2612 1.46618H13.3069L12.0362 3.92814L13.3466 6.36364H12.3009L11.2552 4.37818H10.6067V6.36364H9.62718ZM15.6887 6.40335C15.3533 6.40335 15.0599 6.37246 14.8084 6.31069C14.5569 6.24451 14.3452 6.12538 14.1731 5.95331C14.0054 5.77682 13.8797 5.52533 13.7959 5.19884C13.712 4.87234 13.6701 4.44657 13.6701 3.92153C13.6701 3.39648 13.712 2.97071 13.7959 2.64422C13.8841 2.31331 14.012 2.05961 14.1797 1.88313C14.3474 1.70664 14.5569 1.58531 14.8084 1.51913C15.0599 1.45294 15.3533 1.41985 15.6887 1.41985C16.024 1.41985 16.3174 1.45294 16.5689 1.51913C16.8204 1.58531 17.0299 1.70664 17.1976 1.88313C17.3653 2.05961 17.491 2.31331 17.5748 2.64422C17.6587 2.97071 17.7006 3.39648 17.7006 3.92153C17.7006 4.44657 17.6587 4.87234 17.5748 5.19884C17.491 5.52533 17.3653 5.77682 17.1976 5.95331C17.0299 6.12538 16.8204 6.24451 16.5689 6.31069C16.3174 6.37246 16.024 6.40335 15.6887 6.40335ZM15.6887 5.52313C15.8872 5.52313 16.0527 5.50107 16.185 5.45695C16.3174 5.41282 16.4211 5.33561 16.4961 5.22531C16.5755 5.11059 16.6328 4.94955 16.6681 4.74218C16.7034 4.5304 16.7211 4.25685 16.7211 3.92153C16.7211 3.56856 16.7034 3.28618 16.6681 3.0744C16.6328 2.86262 16.5755 2.70158 16.4961 2.59127C16.4211 2.47656 16.3174 2.39935 16.185 2.35964C16.0527 2.31993 15.8872 2.30007 15.6887 2.30007C15.4989 2.30007 15.3379 2.31993 15.2055 2.35964C15.0732 2.39935 14.9651 2.47656 14.8812 2.59127C14.8018 2.70158 14.7423 2.86262 14.7025 3.0744C14.6672 3.28618 14.6496 3.56856 14.6496 3.92153C14.6496 4.25685 14.665 4.5304 14.6959 4.74218C14.7312 4.94955 14.7886 5.11059 14.868 5.22531C14.9474 5.33561 15.0533 5.41282 15.1857 5.45695C15.3224 5.50107 15.4901 5.52313 15.6887 5.52313ZM19.5816 6.36364C19.3301 6.36364 19.1161 6.32613 18.9396 6.25113C18.7676 6.17171 18.6374 6.04817 18.5492 5.88051C18.4653 5.70844 18.4234 5.48342 18.4234 5.20545V1.46618H19.4029V5.04662C19.4029 5.15251 19.4206 5.23855 19.4558 5.30473C19.4956 5.37091 19.5485 5.41724 19.6147 5.44371C19.6809 5.46577 19.7559 5.4768 19.8397 5.4768H21.3884V6.36364H19.5816ZM23.1234 6.36364C22.8719 6.36364 22.6579 6.32613 22.4814 6.25113C22.3093 6.17171 22.1792 6.04817 22.0909 5.88051C22.0071 5.70844 21.9652 5.48342 21.9652 5.20545V1.46618H22.9447V5.04662C22.9447 5.15251 22.9623 5.23855 22.9976 5.30473C23.0373 5.37091 23.0903 5.41724 23.1564 5.44371C23.2226 5.46577 23.2976 5.4768 23.3815 5.4768H24.9301V6.36364H23.1234ZM26.6982 6.39673C26.5923 6.39673 26.471 6.3857 26.3342 6.36364C26.1974 6.34599 26.0651 6.30187 25.9371 6.23127C25.8136 6.16068 25.7099 6.05479 25.6261 5.9136C25.5466 5.768 25.5069 5.56945 25.5069 5.31796V2.58465C25.5069 2.36846 25.54 2.18756 25.6062 2.04196C25.6724 1.89636 25.7606 1.78165 25.8709 1.69782C25.9812 1.61399 26.1026 1.55442 26.2349 1.51913C26.3673 1.48383 26.4975 1.46618 26.6254 1.46618C26.9563 1.46618 27.2475 1.47059 27.499 1.47942C27.7549 1.48824 27.9843 1.49927 28.1873 1.51251C28.3903 1.52133 28.5756 1.53457 28.7432 1.55222V2.37287H26.9166C26.7798 2.37287 26.6739 2.40596 26.5989 2.47215C26.5239 2.53833 26.4864 2.63981 26.4864 2.77658V3.48473L28.4256 3.53767V4.312L26.4864 4.36495V5.04C26.4864 5.15471 26.5041 5.24516 26.5394 5.31135C26.5791 5.37311 26.6298 5.41724 26.6916 5.44371C26.7578 5.46577 26.8262 5.4768 26.8968 5.4768H28.7432V6.29745C28.5491 6.31951 28.3329 6.33716 28.0946 6.3504C27.8608 6.36364 27.6225 6.37467 27.3799 6.38349C27.1416 6.39231 26.9144 6.39673 26.6982 6.39673ZM31.1038 6.40335C30.817 6.40335 30.5633 6.37025 30.3427 6.30407C30.1265 6.23789 29.9412 6.11656 29.7868 5.94007C29.6368 5.76359 29.5221 5.5121 29.4426 5.1856C29.3676 4.85469 29.3301 4.42671 29.3301 3.90167C29.3301 3.39428 29.3698 2.97954 29.4493 2.65745C29.5331 2.33096 29.6522 2.07947 29.8066 1.90298C29.9611 1.72208 30.1486 1.59634 30.3692 1.52575C30.5898 1.45515 30.8391 1.41985 31.117 1.41985C31.3376 1.41985 31.5428 1.43309 31.7325 1.45956C31.9267 1.48162 32.1009 1.5103 32.2554 1.5456C32.4098 1.57648 32.5399 1.61178 32.6458 1.65149V2.41258C32.5664 2.39493 32.4583 2.37728 32.3215 2.35964C32.1892 2.34199 32.037 2.32875 31.8649 2.31993C31.6928 2.30669 31.5119 2.30007 31.3222 2.30007C31.1369 2.30007 30.9781 2.32213 30.8457 2.36625C30.7177 2.40596 30.6141 2.48318 30.5346 2.59789C30.4596 2.70819 30.4023 2.86924 30.3626 3.08102C30.3273 3.2928 30.3096 3.56856 30.3096 3.90829C30.3096 4.23479 30.3251 4.50393 30.3559 4.71571C30.3912 4.92749 30.4464 5.09295 30.5214 5.21207C30.5964 5.32679 30.6979 5.40841 30.8258 5.45695C30.9582 5.50107 31.1237 5.52313 31.3222 5.52313C31.6575 5.52313 31.9289 5.51651 32.1362 5.50327C32.348 5.49004 32.5179 5.47459 32.6458 5.45695V6.21142C32.5267 6.25113 32.3899 6.28642 32.2355 6.31731C32.0811 6.34378 31.9112 6.36364 31.7259 6.37687C31.5406 6.39452 31.3332 6.40335 31.1038 6.40335ZM34.3595 6.36364V2.3464H33.016V1.46618H36.6891V2.3464H35.339V6.36364H34.3595ZM36.9546 6.37025C36.8663 6.37025 36.8222 6.32613 36.8222 6.23789V5.56284C36.8222 5.47018 36.8663 5.42385 36.9546 5.42385H37.5237C37.6208 5.42385 37.6693 5.47018 37.6693 5.56284V6.23789C37.6693 6.29084 37.6539 6.32613 37.623 6.34378C37.5965 6.36143 37.5635 6.37025 37.5237 6.37025H36.9546ZM11.2751 12.4033C10.9883 12.4033 10.7346 12.3703 10.514 12.3041C10.2978 12.2379 10.1125 12.1166 9.95809 11.9401C9.80807 11.7636 9.69336 11.5121 9.61394 11.1856C9.53893 10.8547 9.50143 10.4267 9.50143 9.90167C9.50143 9.39428 9.54114 8.97954 9.62056 8.65745C9.70439 8.33096 9.82352 8.07947 9.97794 7.90298C10.1324 7.72208 10.3199 7.59634 10.5405 7.52575C10.7611 7.45515 11.0104 7.41985 11.2883 7.41985C11.5089 7.41985 11.7141 7.43309 11.9038 7.45956C12.098 7.48162 12.2722 7.5103 12.4267 7.5456C12.5811 7.57648 12.7112 7.61178 12.8171 7.65149V8.41258C12.7377 8.39493 12.6296 8.37728 12.4928 8.35964C12.3605 8.34199 12.2083 8.32875 12.0362 8.31993C11.8641 8.30669 11.6832 8.30007 11.4935 8.30007C11.3082 8.30007 11.1494 8.32213 11.017 8.36625C10.889 8.40596 10.7854 8.48318 10.7059 8.59789C10.6309 8.70819 10.5736 8.86924 10.5339 9.08102C10.4986 9.2928 10.4809 9.56856 10.4809 9.90829C10.4809 10.2348 10.4964 10.5039 10.5272 10.7157C10.5625 10.9275 10.6177 11.0929 10.6927 11.2121C10.7677 11.3268 10.8692 11.4084 10.9971 11.4569C11.1295 11.5011 11.295 11.5231 11.4935 11.5231C11.8288 11.5231 12.1002 11.5165 12.3075 11.5033C12.5193 11.49 12.6892 11.4746 12.8171 11.4569V12.2114C12.698 12.2511 12.5612 12.2864 12.4068 12.3173C12.2524 12.3438 12.0825 12.3636 11.8972 12.3769C11.7119 12.3945 11.5045 12.4033 11.2751 12.4033ZM13.194 12.3636L14.7294 7.46618H15.967L17.5024 12.3636H16.4832L16.1721 11.3378H14.5044L14.1999 12.3636H13.194ZM14.736 10.4576H15.9405L15.3383 8.30669L14.736 10.4576ZM18.0356 12.3636V7.46618H20.0608C20.2549 7.46618 20.4358 7.49045 20.6035 7.53898C20.7711 7.5831 20.9189 7.66252 21.0469 7.77724C21.1749 7.89195 21.2741 8.05079 21.3447 8.25374C21.4197 8.4567 21.4572 8.71702 21.4572 9.03469C21.4572 9.25971 21.4352 9.45164 21.391 9.61047C21.3469 9.76931 21.2874 9.89947 21.2124 10.0009C21.1418 10.1024 21.0601 10.184 20.9675 10.2458C20.8748 10.3076 20.78 10.3583 20.6829 10.398L21.5962 12.3636H20.5969L19.8093 10.5503C19.7564 10.5503 19.6946 10.5503 19.624 10.5503C19.5578 10.5458 19.4894 10.5436 19.4188 10.5436C19.3482 10.5436 19.2776 10.5436 19.207 10.5436C19.1365 10.5436 19.0725 10.5414 19.0151 10.537V12.3636H18.0356ZM19.0151 9.76269H19.8887C19.977 9.76269 20.0564 9.75166 20.127 9.7296C20.1976 9.70754 20.2593 9.67004 20.3123 9.61709C20.3652 9.55973 20.4049 9.48473 20.4314 9.39207C20.4623 9.29942 20.4777 9.18029 20.4777 9.03469C20.4777 8.89791 20.4623 8.78541 20.4314 8.69716C20.4049 8.60451 20.3652 8.53391 20.3123 8.48538C20.2593 8.43244 20.1976 8.39714 20.127 8.37949C20.0564 8.35743 19.977 8.3464 19.8887 8.3464H19.0151V9.76269ZM22.1849 12.3636V7.46618H24.2564C24.5873 7.46618 24.8631 7.52575 25.0837 7.64487C25.3043 7.75959 25.4786 7.92725 25.6065 8.14785C25.7389 8.36405 25.8315 8.62216 25.8845 8.92218C25.9374 9.22221 25.9639 9.55311 25.9639 9.91491C25.9639 10.4664 25.8999 10.9231 25.772 11.2849C25.6484 11.6467 25.4609 11.918 25.2094 12.0989C24.9579 12.2754 24.6403 12.3636 24.2564 12.3636H22.1849ZM23.1644 11.4834H24.1571C24.3601 11.4834 24.5211 11.4261 24.6403 11.3113C24.7594 11.1922 24.8454 11.0157 24.8984 10.7819C24.9557 10.548 24.9844 10.2591 24.9844 9.91491C24.9844 9.59724 24.9668 9.33692 24.9315 9.13396C24.8962 8.92659 24.8432 8.76555 24.7726 8.65084C24.7064 8.53612 24.6204 8.4567 24.5145 8.41258C24.413 8.36846 24.2939 8.3464 24.1571 8.3464H23.1644V11.4834ZM28.1591 12.4033C28.0311 12.4033 27.8988 12.3989 27.762 12.3901C27.6296 12.3857 27.4928 12.3769 27.3516 12.3636C27.2149 12.346 27.0847 12.3283 26.9612 12.3107C26.8376 12.2886 26.7251 12.2644 26.6236 12.2379V11.4636C26.756 11.4768 26.906 11.4878 27.0737 11.4967C27.2413 11.5055 27.4156 11.5121 27.5965 11.5165C27.7774 11.5209 27.9495 11.5231 28.1127 11.5231C28.2804 11.5231 28.4238 11.5099 28.5429 11.4834C28.6665 11.4525 28.7613 11.4018 28.8275 11.3312C28.8937 11.2562 28.9268 11.1547 28.9268 11.0268V10.8481C28.9268 10.7025 28.8827 10.5922 28.7944 10.5172C28.7106 10.4377 28.5892 10.398 28.4304 10.398H28.0135C27.5458 10.398 27.1862 10.2966 26.9347 10.0936C26.6876 9.88623 26.5641 9.53547 26.5641 9.04131V8.80305C26.5641 8.32654 26.7009 7.97799 26.9744 7.75738C27.248 7.53678 27.6384 7.42647 28.1458 7.42647C28.3267 7.42647 28.5054 7.4353 28.6819 7.45294C28.8628 7.47059 29.0349 7.49265 29.1981 7.51913C29.3658 7.54119 29.5092 7.56545 29.6283 7.59193V8.36625C29.4253 8.35302 29.1981 8.33978 28.9466 8.32655C28.6996 8.31331 28.4701 8.30669 28.2583 8.30669C28.1083 8.30669 27.9738 8.32213 27.8546 8.35302C27.7399 8.37949 27.6517 8.43244 27.5899 8.51185C27.5281 8.59127 27.4972 8.70378 27.4972 8.84938V8.98174C27.4972 9.15382 27.5458 9.27736 27.6428 9.35236C27.7399 9.42737 27.8833 9.46487 28.073 9.46487H28.5562C28.8518 9.46487 29.0944 9.52002 29.2842 9.63033C29.4783 9.73622 29.6217 9.88402 29.7143 10.0737C29.8114 10.2635 29.8599 10.4797 29.8599 10.7223V11.0003C29.8599 11.3841 29.7871 11.6776 29.6415 11.8805C29.5004 12.0835 29.3018 12.2224 29.0459 12.2975C28.7944 12.368 28.4988 12.4033 28.1591 12.4033Z" />
<rect x="0.842285" y="0.181816" width="4.94611" height="36.6364" />
<rect x="57.958" y="16.0182" width="4.96364" height="54.4072" transform="rotate(90 57.958 16.0182)" />
<rect x="88.2236" y="16.0182" width="4.96364" height="34.7405" transform="rotate(90 88.2236 16.0182)" />
<path d="M57.7325 20.8331L86.3894 8.029L84.3776 3.49449L55.7207 16.2986L57.7325 20.8331Z" />
<path d="M55.7109 20.6265L84.5355 33.5055L86.5472 28.971L57.7227 16.092L55.7109 20.6265Z" />
<path d="M70.0766 0.18182L77.0714 0.181821L56.9803 20.3441L53.4829 16.8343L70.0766 0.18182Z" />
<path d="M76.9892 36.7698H69.9943L53.52 20.2371L57.0174 16.7273L76.9892 36.7698Z" />
</svg>
