<svg width="130" height="448" viewBox="0 0 130 448" fill="none" xmlns="http://www.w3.org/2000/svg">
<path d="M-3.94189e-06 74.18L-7.08125e-07 0.199994L128.52 0.199999L128.52 74.18L106.2 74.18L106.2 27.38L77.94 27.38L77.94 70.94L55.62 70.94L55.62 27.38L22.5 27.38L22.5 74.18L-3.94189e-06 74.18ZM-8.39183e-06 175.983L30.6 166.623L30.6 119.823L-5.52786e-06 110.463L-4.24537e-06 81.1227L129.06 126.483L129.06 159.783L-9.67432e-06 205.323L-8.39183e-06 175.983ZM83.34 150.783C85.38 150.183 87.96 149.403 91.08 148.443C94.2 147.483 97.38 146.523 100.62 145.563C103.86 144.603 106.68 143.823 109.08 143.223C106.68 142.623 103.68 141.783 100.08 140.703C96.6 139.743 93.24 138.783 90 137.823C86.88 136.983 84.66 136.323 83.34 135.843L53.46 126.663L53.46 160.143L83.34 150.783ZM128.52 255.44C128.52 267.08 127.08 276.68 124.2 284.24C121.44 291.8 117.18 297.44 111.42 301.16C105.78 304.88 98.64 306.74 90 306.74C84.12 306.74 78.96 305.6 74.52 303.32C70.2 301.16 66.48 298.22 63.36 294.5C60.36 290.9 57.9 287 55.98 282.8L-1.47133e-05 320.6L-1.33914e-05 290.36L49.32 259.76L49.32 245.18L-1.14165e-05 245.18L-1.02285e-05 218L128.52 218L128.52 255.44ZM106.2 253.46L106.2 245.18L71.46 245.18L71.46 254C71.46 260 72.12 264.86 73.44 268.58C74.76 272.3 76.74 275 79.38 276.68C82.14 278.36 85.44 279.2 89.28 279.2C93.36 279.2 96.6 278.24 99 276.32C101.52 274.52 103.32 271.7 104.4 267.86C105.6 264.14 106.2 259.34 106.2 253.46ZM-2.02457e-05 447.168L-1.87351e-05 412.608L97.2 356.628L97.2 355.908C94.2 356.028 91.14 356.148 88.02 356.268C85.02 356.388 81.96 356.508 78.84 356.628C75.84 356.868 72.78 357.048 69.66 357.168C66.66 357.288 63.6 357.408 60.48 357.528L-1.63274e-05 357.528L-1.52652e-05 333.228L128.52 333.228L128.52 367.608L32.22 423.408L32.22 423.948C35.22 423.828 38.16 423.708 41.04 423.588C44.04 423.468 46.98 423.348 49.86 423.228C52.86 423.228 55.8 423.168 58.68 423.048C61.68 422.928 64.68 422.808 67.68 422.688L128.52 422.688L128.52 447.168L-2.02457e-05 447.168Z" fill="white" fill-opacity="0.1"/>
</svg>
