<svg width="101" height="533" viewBox="0 0 101 533" fill="none" xmlns="http://www.w3.org/2000/svg">
<path d="M0.00170592 58.14L0.00170843 0.599995L99.9617 0.599999L99.9617 58.14L82.6017 58.14L82.6017 21.74L60.6217 21.74L60.6217 55.62L43.2617 55.62L43.2617 21.74L17.5017 21.74L17.5017 58.14L0.00170592 58.14ZM0.0017016 156.92L0.00170266 132.7L37.8017 109.46L0.00170469 86.2198L0.00170568 63.5398L51.5217 96.7198L99.9617 65.6398L99.9617 89.0198L63.9817 110.58L99.9617 131.72L99.9617 154.54L50.4017 123.18L0.0017016 156.92ZM99.9617 198.639C99.9617 211.519 97.1617 220.899 91.5617 226.779C86.055 232.752 78.4484 235.739 68.7417 235.739C64.355 235.739 60.155 235.085 56.1417 233.779C52.2217 232.472 48.675 230.279 45.5017 227.199C42.4217 224.212 39.995 220.245 38.2217 215.299C36.4484 210.352 35.5617 204.239 35.5617 196.959L35.5617 187.859L0.00170025 187.859L0.00170117 166.719L99.9617 166.719L99.9617 198.639ZM82.6017 197.519L82.6017 187.859L52.9217 187.859L52.9217 194.859C52.9217 198.872 53.435 202.325 54.4617 205.219C55.4884 208.112 57.1217 210.352 59.3617 211.939C61.6017 213.525 64.495 214.319 68.0417 214.319C72.9884 214.319 76.6284 212.965 78.9617 210.259C81.3884 207.552 82.6017 203.305 82.6017 197.519ZM0.00169508 306.036L23.8017 298.756L23.8017 262.356L0.00169731 255.076L0.00169831 232.256L100.382 267.536L100.382 293.436L0.00169409 328.856L0.00169508 306.036ZM64.8217 286.436C66.4084 285.97 68.415 285.363 70.8417 284.616C73.2684 283.87 75.7417 283.123 78.2617 282.376C80.7817 281.63 82.975 281.023 84.8417 280.556C82.975 280.09 80.6417 279.436 77.8417 278.596C75.135 277.85 72.5217 277.103 70.0017 276.356C67.575 275.703 65.8484 275.19 64.8217 274.816L41.5817 267.676L41.5817 293.716L64.8217 286.436ZM0.00168978 427.336L0.00169096 400.456L75.6017 356.916L75.6017 356.356C73.2684 356.45 70.8884 356.543 68.4617 356.636C66.1284 356.73 63.7484 356.823 61.3217 356.916C58.9884 357.103 56.6084 357.243 54.1817 357.336C51.8484 357.43 49.4684 357.523 47.0417 357.616L0.00169283 357.616L0.00169365 338.716L99.9617 338.716L99.9617 365.456L25.0617 408.856L25.0617 409.276C27.395 409.183 29.6817 409.09 31.9217 408.996C34.255 408.903 36.5417 408.81 38.7817 408.716C41.115 408.716 43.4017 408.67 45.6417 408.576C47.975 408.483 50.3084 408.39 52.6417 408.296L99.9617 408.296L99.9617 427.336L0.00168978 427.336ZM50.9617 532.683C39.7617 532.683 30.3817 530.536 22.8217 526.243C15.2617 521.95 9.56835 515.696 5.74169 507.483C1.91502 499.363 0.00168706 489.563 0.00168756 478.083L0.0016888 449.803L99.9617 449.803L99.9617 481.163C99.9617 491.616 98.095 500.67 94.3617 508.323C90.6284 516.07 85.1217 522.043 77.8417 526.243C70.655 530.536 61.695 532.683 50.9617 532.683ZM50.4017 510.703C57.775 510.703 63.8417 509.63 68.6017 507.483C73.3617 505.336 76.8617 502.116 79.1017 497.823C81.435 493.623 82.6017 488.443 82.6017 482.283L82.6017 470.943L17.5017 470.943L17.5017 480.043C17.5017 490.403 20.255 498.103 25.7617 503.143C31.2684 508.183 39.4817 510.703 50.4017 510.703Z" fill="white" fill-opacity="0.1"/>
</svg>
