<svg width="163" height="914" viewBox="0 0 163 914" fill="none" xmlns="http://www.w3.org/2000/svg">
<path d="M2.99987 91.22L2.99988 0.799992L160.08 0.799999L160.08 91.22L132.8 91.22L132.8 34.02L98.2599 34.02L98.2599 87.26L70.9799 87.26L70.9799 34.02L30.4999 34.02L30.4999 91.22L2.99987 91.22ZM2.99987 246.445L2.99987 208.385L62.3999 171.865L2.99987 135.345L2.99987 99.7055L83.9599 151.845L160.08 103.005L160.08 139.745L103.54 173.625L160.08 206.845L160.08 242.705L82.1999 193.425L2.99987 246.445ZM160.08 312.004C160.08 332.244 155.68 346.984 146.88 356.224C138.227 365.61 126.273 370.304 111.02 370.304C104.127 370.304 97.5265 369.277 91.2199 367.224C85.0599 365.17 79.4865 361.724 74.4999 356.884C69.6599 352.19 65.8465 345.957 63.0599 338.184C60.2732 330.41 58.8799 320.804 58.8799 309.364L58.8799 295.064L2.99986 295.064L2.99987 261.844L160.08 261.844L160.08 312.004ZM132.8 310.244L132.8 295.064L86.1599 295.064L86.1599 306.064C86.1599 312.37 86.9665 317.797 88.5799 322.344C90.1932 326.89 92.7599 330.41 96.2799 332.904C99.7999 335.397 104.347 336.644 109.92 336.644C117.693 336.644 123.413 334.517 127.08 330.264C130.893 326.01 132.8 319.337 132.8 310.244ZM2.99986 395.588L160.08 395.588L160.08 428.808L30.4999 428.808L30.4999 492.608L2.99986 492.608L2.99986 395.588ZM81.7599 653.846C69.5865 653.846 58.5132 652.306 48.5399 649.226C38.7132 646.293 30.2065 641.746 23.0199 635.586C15.8332 629.573 10.3332 621.799 6.51985 612.266C2.70652 602.879 0.799851 591.806 0.799852 579.046C0.799852 566.286 2.70652 555.139 6.51985 545.606C10.4799 536.219 15.9799 528.446 23.0199 522.286C30.2065 516.273 38.7865 511.726 48.7599 508.646C58.7332 505.713 69.8065 504.246 81.9799 504.246C98.2599 504.246 112.413 506.886 124.44 512.166C136.467 517.593 145.78 525.806 152.38 536.806C159.127 547.953 162.5 562.106 162.5 579.266C162.5 596.279 159.127 610.286 152.38 621.286C145.78 632.286 136.393 640.426 124.22 645.706C112.193 651.133 98.0399 653.846 81.7599 653.846ZM81.7599 539.226C70.7599 539.226 61.2999 540.619 53.3799 543.406C45.4599 546.193 39.3732 550.519 35.1199 556.386C30.8665 562.253 28.7399 569.806 28.7399 579.046C28.7399 588.579 30.8665 596.206 35.1199 601.926C39.3732 607.793 45.4599 612.046 53.3799 614.686C61.2999 617.473 70.7599 618.866 81.7599 618.866C98.3332 618.866 111.313 615.786 120.7 609.626C130.087 603.466 134.78 593.346 134.78 579.266C134.78 569.879 132.653 562.253 128.4 556.386C124.147 550.519 118.06 546.193 110.14 543.406C102.22 540.619 92.7599 539.226 81.7599 539.226ZM160.08 727.744C160.08 741.97 158.32 753.704 154.8 762.944C151.427 772.184 146.22 779.077 139.18 783.624C132.287 788.17 123.56 790.444 113 790.444C105.813 790.444 99.5065 789.05 94.0799 786.264C88.7998 783.624 84.2532 780.03 80.4398 775.484C76.7732 771.084 73.7665 766.317 71.4198 761.184L2.99984 807.384L2.99984 770.424L63.2798 733.024L63.2798 715.204L2.99985 715.204L2.99985 681.984L160.08 681.984L160.08 727.744ZM132.8 725.324L132.8 715.204L90.3398 715.204L90.3398 725.984C90.3398 733.317 91.1465 739.257 92.7598 743.804C94.3732 748.35 96.7932 751.65 100.02 753.704C103.393 755.757 107.427 756.784 112.12 756.784C117.107 756.784 121.067 755.61 124 753.264C127.08 751.064 129.28 747.617 130.6 742.924C132.067 738.377 132.8 732.51 132.8 725.324ZM2.99984 913.238L2.99984 822.818L160.08 822.818L160.08 913.238L132.8 913.238L132.8 856.038L98.2598 856.038L98.2598 909.278L70.9798 909.278L70.9798 856.038L30.4998 856.038L30.4998 913.238L2.99984 913.238Z" fill="white" fill-opacity="0.1"/>
</svg>
